<svg id="Lager_2" data-name="Lager 2" xmlns="http://www.w3.org/2000/svg" viewBox="0 0 579 339"><defs><style>.cls-1{fill:#dadadd;}</style></defs><title>Rityta 1</title><path class="cls-1" d="M85.44,307.91,62.82,281.25a211.16,211.16,0,0,0,49.84-43.68q21.33-25.66,28.51-52.69-17.47,10.85-41,10.85-29.43,0-50.49-21.89t-21.06-52.6q0-32,22.44-54.26t54.81-22.25q36.42,0,59.59,26.3t23.17,67.5q0,46.72-29.06,94.44T85.44,307.91Zm62.9-159.64a63,63,0,0,0,2.21-19.13q0-22.25-12.41-36.42T106.22,78.57q-17.84,0-29.52,12T65,120.87q0,16.74,12.69,28.88a42.36,42.36,0,0,0,30.35,12.14Q128.66,161.88,148.34,148.27Z"/><path class="cls-1" d="M281,269.48h97.81V305H216.21V302.4l15.45-18.21q36.23-44.87,57.66-76.14t28-47.27a83.3,83.3,0,0,0,6.53-31.63q0-21.7-12.32-34.85T278.74,81.14q-15.45,0-30.44,9.1T221.36,115.9V69.19q30-24.46,61.8-24.46,33.66,0,55.45,22.44t21.79,57a112.18,112.18,0,0,1-5.42,33q-5.42,17.57-19.21,40.47t-46.88,62.45Z"/><path class="cls-1" d="M424.74,48h114V80.77H458.21V145.7q3.86-.37,7.91-.37,37.33,0,61.43,22.71t24.09,57.84q0,36.24-23.82,58.95t-61.71,22.71q-31.27,0-60.69-15.08V254.58q27.77,18,54.26,18,23.17,0,38.9-13.52t15.73-33.2q0-20.41-17.1-34.12t-42.67-13.7q-21.89,0-29.79,3.68Z"/></svg>