<svg id="Lager_3" data-name="Lager 3" xmlns="http://www.w3.org/2000/svg" viewBox="0 0 579 339"><defs><style>.cls-1{fill:#fff;}</style></defs><title>Rityta 1</title><path class="cls-1" d="M83.2,304.63,72.85,291q83.83-60.42,95.08-125.38-29.58,19.05-55.71,19.05-29.94,0-50.26-20.05T41.65,115.2q0-30.85,20.05-50.72T113,44.61q36.11,0,57.07,23.77t21,65Q191,227.88,83.2,304.63Zm88-161.49q.54-5.81.54-11.25,0-32.66-15.15-51.08T114,62.4q-22.5,0-38,14.79T60.52,114.11q0,22.5,15,37.65T113,166.91Q144.89,166.91,171.2,143.14Z"/><path class="cls-1" d="M218.17,90V67.66q28.12-23,59.15-23t52.62,21.14q21.59,21.14,21.59,51.62,0,60.42-93.27,166.57H376.21v17.42H215.27q117.4-113,117.4-183.63,0-23.41-16.33-39.38t-40.46-16a61.76,61.76,0,0,0-28.67,6.53Q234.5,75.46,218.17,90Z"/><path class="cls-1" d="M530.81,47.88v17.6H441.17v80.2A130.14,130.14,0,0,1,461.5,144q37.92,0,61,21.32t23,57.25q0,35.2-23.41,58.61t-58.61,23.41q-29.4,0-61-16.69V266.35q35.38,20.51,61.69,20.5,27.22,0,44.82-17.78t17.6-45q0-29.76-18.69-46.54t-49.72-16.78a119.88,119.88,0,0,0-34.84,5.44V47.88Z"/></svg>